<?xml version="1.0" encoding="UTF-8"?>
<svg id="Layer_1" xmlns="http://www.w3.org/2000/svg" viewBox="0 0 512 512">
  <defs>
    <style>
      .cls-1 {
        fill: #231f20;
      }

      .cls-2 {
        fill: #fff;
      }
    </style>
  </defs>
  <circle class="cls-2" cx="256" cy="256" r="256"/>
  <g>
    <path class="cls-1" d="M119.42,234.92l-.02.13-.03.17c-.04.24-.07.48-.1.71v.04s0,0,0,0c0,.05-.01.09-.02.14-.02.14-.04.28-.06.43l-.06.37v.07s-.02.11-.02.11h0s0,.07,0,.07v.06s-.01.03-.01.03v.11s-.02.09-.02.09v.02s-.02.06-.02.06c-.06.45-.12.91-.18,1.38-.05.41-.09.82-.14,1.24-.02.16-.04.31-.05.47h0s0,.04,0,.04h0c-.06.51-.11,1.01-.16,1.51-.04.37-.07.75-.1,1.13v.04l-.04.37c-.01.15-.02.3-.04.44-.01.16-.03.31-.04.47,0,.08-.01.16-.02.24-.01.12-.02.24-.03.36,0,.15-.02.3-.03.45,0,.07,0,.14-.01.21-.04.51-.08,1.05-.11,1.67h0s0,.01,0,.01v.02c-.01.26-.03.52-.04.79-.01.27-.03.55-.04.82v.02s0,.03,0,.03v.06s0,.06,0,.09c0,.06,0,.12,0,.19v.08h0s0,.01,0,.01v.09c-.02.31-.03.62-.04.93,0,.13-.01.26-.02.4-.02.57-.04,1.09-.05,1.64,0,.08,0,.17,0,.26v.19c-.01.45-.02.88-.02,1.33v.25s0,.11,0,.11h0v.47c0,.13,0,.27,0,.4,0,.1,0,.19,0,.29s0,.19,0,.29c0,.13,0,.26,0,.4v.81c.39,26.28,10.92,50.93,29.65,69.4,18.75,18.49,43.57,28.67,69.91,28.67,4.19,0,8.34-.28,12.44-.79,1.86-.23,3.71-.49,5.55-.83,0,0,0,0,0,0-13.63-8.24-25.42-19.27-34.68-32.54-3.36-4.81-6.32-9.83-8.87-15.03-.58-1.17-1.12-2.35-1.66-3.54-.06-.13-.12-.26-.18-.39-6.46-14.52-9.82-30.27-9.82-46.46,0-23.55,7.1-46.17,20.53-65.41,3.08-4.42,6.46-8.59,10.08-12.49,11.77-12.7,26.24-22.55,42.53-28.86,4.94-1.91,9.97-3.47,15.1-4.67,8.54-2,17.3-3.01,26.2-3.01,20.8,0,40.78,5.52,58.23,15.87,0,0,0,0,0,0,0-.01-.02-.02-.03-.03-.16-.16-.33-.32-.49-.48-.22-.21-.44-.42-.66-.63-.07-.06-.14-.13-.2-.19h0s-.05-.05-.05-.05l-.02-.02-.03-.04c-.19-.18-.4-.37-.6-.56-.21-.2-.41-.4-.64-.6l-.02-.03-.02-.02-.05-.04s-.07-.07-.11-.1c-.24-.23-.48-.45-.73-.67l-.05-.04-.32-.29c-.05-.05-.11-.09-.16-.14-.35-.32-.7-.64-1.05-.95-.4-.36-.79-.69-1.17-1.03-.12-.11-.25-.21-.38-.32-.26-.23-.53-.45-.8-.68l-.53-.45-.29-.24h0s-.22-.19-.22-.19l-.11-.09c-.32-.27-.62-.52-.94-.77l-.05-.04-.02-.02-.03-.02-.04-.03c-.23-.19-.47-.38-.7-.57h0s-.02-.02-.02-.02h-.02s-.01-.01-.01-.01c-.74-.6-1.52-1.21-2.31-1.81v-.02s-.04-.01-.04-.01c-.21-.16-.42-.32-.63-.48l-.25-.19-.15-.12s-.07-.05-.11-.08c-.01,0-.02-.02-.03-.03h0s-.03-.03-.03-.03h-.02s-.04-.04-.04-.04l-.44-.33-.16-.12-.59-.44c-.06-.04-.13-.09-.19-.14-.11-.08-.23-.16-.34-.24l-.24-.17h0s-.01-.02-.01-.02h-.01s-.02-.01-.02-.01c-.23-.17-.47-.34-.7-.5-.06-.04-.11-.08-.17-.12l-.07-.05-.06-.04c-.57-.4-1.15-.8-1.73-1.2h-.02s0-.01,0-.01h-.02c-.26-.19-.52-.37-.78-.55-.06-.04-.12-.09-.19-.13h0s-.02-.02-.02-.02c-.39-.25-.78-.51-1.17-.77-.02-.01-.04-.03-.06-.04h0s-.03-.02-.03-.02l-.04-.02c-.08-.05-.17-.11-.25-.16-.28-.18-.56-.37-.84-.54l-.04-.03h0s-.04-.03-.04-.03c-.42-.28-.84-.54-1.27-.8l-.04-.02h0s-.06-.04-.06-.04c-.43-.28-.87-.55-1.32-.81l-.7-.42h0c-.11-.07-.21-.14-.32-.2-.13-.08-.27-.16-.4-.24h-.03s0-.02,0-.02h0s-.02-.01-.02-.01c-.08-.05-.16-.09-.25-.14-.32-.18-.63-.37-.95-.55l-.24-.14c-.11-.06-.22-.12-.33-.19-.29-.17-.58-.34-.88-.5-.03-.02-.06-.03-.09-.05-1.96-1.1-3.96-2.15-5.97-3.15-.04-.02-.09-.05-.13-.07h-.02s-.01-.02-.01-.02l-.05-.02c-.44-.23-.88-.45-1.34-.65l-1.18-.57h0s-.07-.04-.1-.06c-.02-.01-.04-.02-.07-.03h-.03s-.01-.02-.01-.02h-.02c-1.4-.67-2.68-1.24-3.93-1.77l-.03-.02h-.03s-.03-.02-.03-.02h-.03c-.3-.15-.59-.27-.9-.4l-.13-.05-.09-.04h-.02s0-.01,0-.01l-.54-.22c-.19-.08-.38-.16-.57-.23-.09-.04-.18-.07-.27-.11-1.33-.54-2.42-.97-3.43-1.34l-.6-.22-.08-.03-.63-.24c-1.69-.61-3.44-1.21-5.2-1.77h-.02s-.02-.01-.02-.01c-.03,0-.06-.02-.09-.03-.34-.11-.67-.21-1.01-.32-.34-.11-.69-.21-1.03-.32-.21-.06-.41-.13-.62-.19-.77-.22-1.49-.43-2.19-.62h-.04s0,0,0,0h-.02s-.02-.02-.02-.02c-.09-.02-.19-.05-.29-.08-.15-.04-.31-.08-.46-.12l-.09-.03-.14-.04c-1.45-.39-2.94-.74-4.42-1.08-.87-.2-1.75-.4-2.63-.59-1.48-.32-2.97-.63-4.46-.9-.56-.1-1.11-.19-1.67-.28h-.03s-.02,0-.02,0h-.01c-.55-.1-1.11-.19-1.67-.27-.26-.04-.51-.08-.77-.11-.32-.05-.65-.1-.97-.14-1.59-.22-3.19-.42-4.79-.58-3.09-.32-6.21-.54-9.33-.65-1.74-.06-3.47-.1-5.21-.1-2.92,0-5.85.11-8.78.29-.31.02-.62.03-.92.05-3.23.22-6.45.56-9.63,1-.57.08-1.14.17-1.71.25-.02,0-.03,0-.05.01,0,0-.01,0-.02,0h0l-115.46,115.46v.04Z"/>
    <path class="cls-1" d="M392.61,276.91l.02-.1v-.11c.04-.19.07-.39.1-.59v-.04s.02-.07.02-.07v-.08c.05-.25.1-.51.13-.77v-.17s.04-.17.04-.17c.01-.08.02-.16.04-.24l.1-.86.08-.59c.07-.57.13-1.11.19-1.64v-.07c.07-.51.12-1,.16-1.49.04-.41.08-.8.11-1.18v-.02l.04-.37c.03-.28.05-.54.07-.81v-.1s.01-.1.01-.1c.04-.35.06-.7.08-1.05v-.14c.05-.51.09-1.04.12-1.64v-.04c.04-.54.07-1.07.1-1.59v-.16s0-.22,0-.22v-.22c.04-.44.05-.88.07-1.33.02-.6.04-1.17.05-1.75v-.07s0-.26,0-.26c0-.41.01-.83.01-1.24v-.54c.01-.36.01-.71.01-1.06,0-.37,0-.75,0-1.12v-.39c-.39-26.28-10.92-50.93-29.65-69.4-18.75-18.49-43.58-28.67-69.92-28.67-6.08,0-12.1.54-17.99,1.61,13.63,8.24,25.42,19.27,34.68,32.55,13.43,19.24,20.53,41.86,20.53,65.41s-7.1,46.17-20.53,65.41c-13.12,18.8-31.31,33.1-52.62,41.34-13.15,5.09-27.04,7.68-41.29,7.68-20.8,0-40.77-5.52-58.23-15.87l.03.03.08.07.07.08c.08.09.16.17.25.24l.28.27c.22.22.45.44.68.65l.04.04.05.04c.37.36.81.78,1.24,1.17l.07.05.06.06c.28.27.56.54.85.8l.02.02.03.02c.5.46,1,.91,1.52,1.37l.03.02.03.03c.33.3.67.59,1.01.89l.07.05.22.19h.02s.98.86.98.86l.2.17.05.04c.27.22.53.45.8.66l.1.08.1.09c.23.2.49.41.78.64l.1.07.09.07c.21.18.42.35.62.5l.07.05.06.05c.74.59,1.5,1.19,2.28,1.78.16.13.33.26.5.39.19.15.38.29.57.43.11.08.22.16.31.24l.19.13c.31.23.62.46.93.69l.29.21c.16.11.31.22.47.33l.06.04.07.05c.22.17.46.33.69.5l.25.18c.57.4,1.14.8,1.72,1.2l.05.03.05.04c.25.18.51.35.77.52l.19.13.64.42.68.45c.34.22.7.46,1.06.68.36.24.72.46,1.07.68h.88l1.57,1.49c.24.15.48.3.73.44.48.28.96.56,1.44.83l.04.03.04.03c.38.22.76.43,1.15.65,2.04,1.15,4.1,2.25,6.17,3.26.46.23.91.45,1.37.67.07.04.13.07.2.1.43.2.86.4,1.29.61,1.3.61,2.63,1.2,3.93,1.76h.03s.03.02.03.02c.32.14.65.28.97.42.1.04.2.08.31.13.43.18.86.36,1.3.53,1.06.43,2.22.88,3.42,1.33h.04s.04.03.04.03c.37.14.74.28,1.12.42h.05s.04.03.04.03c1.76.65,3.51,1.24,5.19,1.77l.06.02h.05c.34.13.68.24,1.02.34h.05s.04.02.04.02c.51.16,1.03.32,1.54.48l.43.13c.62.17,1.23.35,1.84.52.34.1.65.18.95.26h.07c3.81,1.04,7.68,1.9,11.5,2.58h.04s.04.02.04.02c.46.08.96.17,1.58.28h.07c.62.11,1.13.19,1.6.26h.07s.07.02.07.02c.54.09,1.08.16,1.61.24h.04c6.37.89,12.86,1.35,19.33,1.35s12.98-.45,19.34-1.34l.13-.02c.51-.07,1.02-.14,1.52-.22h.07s.05-.02.05-.02l115.46-115.46c0-.07.01-.13.03-.2Z"/>
  </g>
</svg>